# xmcd
# 
# Track frame offsets:
#     150
#     17646
#     24158
#     42123
#     56134
#     74404
#     105679
#     128113
#     137254
#     152328
#     179068
#     202209
#     216180
#     233218
#     255644
#     284021
#     310403
#     322250
#     339924
# 
# Disc length: 4755
# 
# Revision: 2
# Processed by: cddbd v1.5.2PL0 Copyright (c) Steve Scherf et al.
# Submitted via: fre:ac v1.0.31
# 
DISCID=1d129113
DTITLE=80's - Left Of The Dial Disc 3
DYEAR=0
DGENRE=Rock/Pop
TTITLE0=Echo and The Bunnymen - The Cutter
TTITLE1=Bad Brains - Pay To Cum!
TTITLE2=The Sugarcubes - Birthday
TTITLE3=Robyn Hitchcock and The Egyptians - Madonna Of The Wasps
TTITLE4=Faith No More - We Care A Lot
TTITLE5=Sonic Youth - Teen Age Riot
TTITLE6=Gang Of Four - To Hell With Poverty
TTITLE7=The Feelies - Fa Cé-La
TTITLE8=They Might Be Giants - Ana Ng
TTITLE9=The Chameleons UK - Swamp Thing
TTITLE10=Nick Cave and The Bad Seeds - The Mercy Seat
TTITLE11=Rain Parade - I Look Around
TTITLE12=Psychedelic Furs - All That Money Wants
TTITLE13=The Church - Under The Milky Way
TTITLE14=Public Image Ltd. - Rise
TTITLE15=Love And Rockets - Kundalini Express
TTITLE16=Green On Red - Gravity Talks
TTITLE17=Throbbing Gristle - Adrenalin
TTITLE18=Stone Roses - She Bangs The Drums
EXTD=
EXTT0=
EXTT1=
EXTT2=
EXTT3=
EXTT4=
EXTT5=
EXTT6=
EXTT7=
EXTT8=
EXTT9=
EXTT10=
EXTT11=
EXTT12=
EXTT13=
EXTT14=
EXTT15=
EXTT16=
EXTT17=
EXTT18=
PLAYORDER=
